# xmcd
#
# Track frame offsets: 
#        150
#        12835
#        29089
#        58343
#        81892
#        99180
#        126183
#        146736
#        169993
#        196372
#        220058
#        241215
#        262989
#
# Disc length: 3921 seconds
#
# Revision: 0
# Processed by: cddbd v1.5.2PL0 Copyright (c) Steve Scherf et al.
# Submitted via: ExactAudioCopy v0.99pb5
#
DISCID=b80f4f0d
DTITLE=The Monsters - Edge of Time
DYEAR=2009
DGENRE=Rhythm and Blues
TTITLE0=Intro
TTITLE1=Same Old Blues
TTITLE2=South California Purples
TTITLE3=Edge of Time
TTITLE4=Blues is my Business
TTITLE5=Two Cigarettes
TTITLE6=Lie to me
TTITLE7=I've got the Blues
TTITLE8=The Thrill is gone
TTITLE9=Good Time for the Blues
TTITLE10=Colours
TTITLE11=Green Light Girl
TTITLE12=Little Wing
EXTD=
EXTT0=
EXTT1=
EXTT2=
EXTT3=
EXTT4=
EXTT5=
EXTT6=
EXTT7=
EXTT8=
EXTT9=
EXTT10=
EXTT11=
EXTT12=
PLAYORDER=
